<?xml version="1.0" encoding="utf-8"?>
<!-- Generator: Adobe Illustrator 15.1.0, SVG Export Plug-In . SVG Version: 6.00 Build 0)  -->
<!DOCTYPE svg PUBLIC "-//W3C//DTD SVG 1.1//EN" "http://www.w3.org/Graphics/SVG/1.1/DTD/svg11.dtd">
<svg version="1.1" id="Layer_1" xmlns="http://www.w3.org/2000/svg" xmlns:xlink="http://www.w3.org/1999/xlink" x="0px" y="0px"
	 width="761px" height="155.339px" viewBox="0 0 761 155.339" enable-background="new 0 0 761 155.339" xml:space="preserve">
<g>
	<defs>
		<rect id="SVGID_1_" width="761" height="155.339"/>
	</defs>
	<clipPath id="SVGID_2_">
		<use xlink:href="#SVGID_1_"  overflow="visible"/>
	</clipPath>
	<path clip-path="url(#SVGID_2_)" d="M88.83,111.872c-0.066-5.893-1.17-7.15-19.432-12.367l1.389,20.822
		c0,5.553,5.244,7.688,10.602,10.219c5.461,2.307,7.343,3.23,7.435,3.275l0.004,0.002l0.006,0.002c0,0,1.976-0.973,7.437-3.279
		c5.358-2.531,10.6-4.666,10.6-10.219l1.389-20.822C90,104.722,88.896,105.979,88.83,111.872"/>
	<path clip-path="url(#SVGID_2_)" d="M88.83,59.562c-0.203-18.111-3.596-21.982-59.738-38.023l4.269,64.017
		c0,16.537,15.127,23.213,31.043,30.686c-5.002-3.125-8.574-6.99-8.574-13.18l-2.539-38.088c33.4,9.543,35.418,11.848,35.539,22.623
		c0.121-10.775,2.141-13.08,35.539-22.623l-2.539,38.088c0,6.189-3.57,10.055-8.572,13.18c15.916-7.473,31.039-14.15,31.039-30.686
		l4.269-64.017C92.426,37.58,89.033,41.451,88.83,59.562"/>
	<polygon clip-path="url(#SVGID_2_)" points="179.283,81.04 176.955,81.04 176.955,92.396 171.605,92.396 171.605,65.067 
		176.955,65.067 176.955,76.179 178.681,76.179 184.013,65.067 190.564,65.067 183.111,77.55 191.183,92.396 184.689,92.396 	"/>
	<rect x="194.189" y="65.068" clip-path="url(#SVGID_2_)" width="5.313" height="27.328"/>
	<path clip-path="url(#SVGID_2_)" d="M210.242,81.528v10.867h-5.332V65.086h8.916c2.691,0,4.803,0.709,6.336,2.129
		c1.531,1.42,2.299,3.395,2.299,5.922c0,1.428-0.319,2.656-0.957,3.69c-0.639,1.031-1.571,1.855-2.797,2.466
		c1.4,0.477,2.412,1.266,3.031,2.366c0.619,1.102,0.93,2.479,0.93,4.128v1.935c0,0.752,0.086,1.555,0.262,2.412
		c0.175,0.857,0.482,1.48,0.919,1.867v0.395h-5.517c-0.44-0.4-0.713-1.051-0.826-1.951c-0.114-0.9-0.17-1.82-0.17-2.76v-1.857
		c0-1.365-0.278-2.422-0.834-3.172c-0.557-0.752-1.356-1.127-2.395-1.127H210.242z M210.242,77.267h3.566
		c1.088,0,1.914-0.33,2.477-0.994c0.564-0.662,0.846-1.608,0.846-2.834c0-1.252-0.282-2.246-0.846-2.985
		c-0.563-0.738-1.383-1.107-2.459-1.107h-3.584V77.267z"/>
	<path clip-path="url(#SVGID_2_)" d="M236.715,65.067h5.313v18.994c0,2.678-0.754,4.803-2.262,6.373
		c-1.508,1.57-3.406,2.355-5.697,2.355c-2.477,0-4.438-0.702-5.883-2.102c-1.446-1.402-2.145-3.467-2.094-6.195l0.057-0.111h5.199
		c0,1.439,0.254,2.49,0.76,3.152c0.507,0.664,1.16,0.996,1.961,0.996c0.726,0,1.349-0.395,1.869-1.184
		c0.517-0.787,0.777-1.884,0.777-3.285V65.067z"/>
	<path clip-path="url(#SVGID_2_)" d="M258.98,86.56h-7.207l-1.465,5.836h-5.386l7.695-27.328h5.557l7.675,27.328h-5.386
		L258.98,86.56z M252.861,82.298h5.031l-2.459-9.666h-0.113L252.861,82.298z"/>
	<path clip-path="url(#SVGID_2_)" d="M281.076,85.263c0-1.063-0.275-1.904-0.826-2.523c-0.551-0.619-1.52-1.23-2.908-1.831
		c-2.842-0.987-4.971-2.11-6.393-3.369c-1.42-1.257-2.129-3.019-2.129-5.283c0-2.24,0.826-4.064,2.477-5.473
		c1.652-1.408,3.759-2.111,6.326-2.111c2.601,0,4.717,0.785,6.344,2.356c1.627,1.57,2.414,3.55,2.365,5.941l-0.037,0.111h-5.182
		c0-1.25-0.312-2.263-0.937-3.039c-0.627-0.777-1.508-1.164-2.647-1.164c-1.064,0-1.892,0.322-2.488,0.967
		c-0.594,0.645-0.891,1.453-0.891,2.43c0,0.9,0.332,1.642,0.994,2.224c0.664,0.582,1.815,1.229,3.455,1.944
		c2.59,0.875,4.54,1.986,5.846,3.33c1.309,1.345,1.961,3.164,1.961,5.453c0,2.365-0.787,4.217-2.363,5.557
		c-1.578,1.338-3.674,2.008-6.289,2.008c-2.604,0-4.858-0.76-6.766-2.281c-1.908-1.52-2.832-3.699-2.769-6.541l0.037-0.111h5.199
		c0,1.689,0.357,2.902,1.07,3.641c0.713,0.738,1.789,1.107,3.229,1.107c1.127,0,1.961-0.301,2.506-0.9
		C280.805,87.103,281.076,86.29,281.076,85.263"/>
	<polygon clip-path="url(#SVGID_2_)" points="306.795,69.327 300.639,69.327 300.639,92.396 295.307,92.396 295.307,69.327 
		289.188,69.327 289.188,65.067 306.795,65.067 	"/>
	<path clip-path="url(#SVGID_2_)" d="M328.215,82.579c0,3.203-0.87,5.707-2.61,7.508c-1.74,1.803-4.055,2.703-6.945,2.703
		c-2.891,0-5.199-0.9-6.926-2.703c-1.727-1.801-2.59-4.305-2.59-7.508v-7.658c0-3.19,0.863-5.696,2.59-7.518
		c1.727-1.82,4.029-2.73,6.908-2.73c2.877,0,5.192,0.91,6.944,2.73c1.752,1.822,2.629,4.328,2.629,7.518V82.579z M322.902,74.864
		c0-1.959-0.363-3.436-1.088-4.434c-0.726-0.998-1.783-1.496-3.172-1.496c-1.402,0-2.453,0.496-3.154,1.487
		c-0.701,0.992-1.051,2.472-1.051,4.443v7.717c0,1.982,0.358,3.472,1.07,4.461c0.713,0.992,1.764,1.488,3.153,1.488
		c1.377,0,2.428-0.496,3.154-1.488c0.725-0.989,1.088-2.479,1.088-4.461V74.864z"/>
	<path clip-path="url(#SVGID_2_)" d="M379.239,92.396V65.068h8.053c2.814,0,5.014,0.625,6.598,1.877
		c1.582,1.252,2.373,3.115,2.373,5.593c0,1.301-0.287,2.455-0.863,3.463c-0.576,1.008-1.439,1.762-2.59,2.262
		c1.439,0.338,2.502,1.07,3.191,2.195c0.688,1.127,1.031,2.447,1.031,3.961c0,2.615-0.748,4.598-2.242,5.948
		c-1.496,1.353-3.638,2.028-6.43,2.028H379.239z M384.589,76.611h2.947c1.088-0.026,1.924-0.342,2.504-0.95
		c0.582-0.609,0.873-1.484,0.873-2.625c0-1.281-0.299-2.218-0.9-2.814c-0.6-0.596-1.508-0.895-2.721-0.895h-2.703V76.611z
		 M384.589,80.347v7.789h3.771c1.127,0,1.969-0.313,2.525-0.939c0.558-0.625,0.836-1.557,0.836-2.797
		c0-1.301-0.237-2.301-0.715-3.002c-0.475-0.701-1.238-1.051-2.289-1.051H384.589z"/>
	<rect x="401.803" y="65.068" clip-path="url(#SVGID_2_)" width="5.313" height="27.328"/>
	<path clip-path="url(#SVGID_2_)" d="M412.505,92.396V65.068h8.053c2.816,0,5.016,0.625,6.598,1.877s2.375,3.115,2.375,5.593
		c0,1.301-0.289,2.455-0.862,3.463c-0.577,1.008-1.44,1.762-2.593,2.262c1.439,0.338,2.504,1.07,3.191,2.195
		c0.688,1.127,1.033,2.447,1.033,3.961c0,2.615-0.748,4.598-2.244,5.948c-1.494,1.353-3.638,2.028-6.428,2.028H412.505z
		 M417.854,76.611h2.947c1.088-0.026,1.924-0.342,2.506-0.95c0.582-0.609,0.873-1.484,0.873-2.625c0-1.281-0.301-2.218-0.9-2.814
		c-0.602-0.596-1.51-0.895-2.723-0.895h-2.703V76.611z M417.854,80.347v7.789h3.773c1.125,0,1.967-0.313,2.523-0.939
		c0.557-0.625,0.836-1.557,0.836-2.797c0-1.301-0.238-2.301-0.713-3.002c-0.477-0.701-1.238-1.051-2.291-1.051H417.854z"/>
	<polygon clip-path="url(#SVGID_2_)" points="440.14,88.136 450.124,88.136 450.124,92.396 434.79,92.396 434.79,65.068 
		440.14,65.068 	"/>
	<rect x="454.032" y="65.068" clip-path="url(#SVGID_2_)" width="5.313" height="27.328"/>
	<path clip-path="url(#SVGID_2_)" d="M483.147,82.579c0,3.203-0.869,5.707-2.607,7.508c-1.74,1.803-4.055,2.703-6.945,2.703
		s-5.199-0.9-6.926-2.703c-1.728-1.801-2.59-4.305-2.59-7.508v-7.658c0-3.19,0.862-5.696,2.59-7.518
		c1.727-1.82,4.029-2.73,6.906-2.73c2.879,0,5.193,0.91,6.945,2.73c1.752,1.822,2.627,4.328,2.627,7.518V82.579z M477.837,74.864
		c0-1.959-0.363-3.436-1.09-4.434c-0.725-0.998-1.783-1.496-3.172-1.496c-1.4,0-2.453,0.496-3.152,1.487
		c-0.701,0.992-1.051,2.472-1.051,4.443v7.717c0,1.982,0.355,3.472,1.068,4.461c0.715,0.992,1.766,1.488,3.154,1.488
		c1.377,0,2.428-0.496,3.152-1.488c0.727-0.989,1.09-2.479,1.09-4.461V74.864z"/>
	<polygon clip-path="url(#SVGID_2_)" points="503.161,69.327 497.005,69.327 497.005,92.396 491.673,92.396 491.673,69.327 
		485.554,69.327 485.554,65.067 503.161,65.067 	"/>
	<polygon clip-path="url(#SVGID_2_)" points="521.222,80.401 512.042,80.401 512.042,88.136 522.835,88.136 522.835,92.396 
		506.692,92.396 506.692,65.067 522.798,65.067 522.798,69.327 512.042,69.327 512.042,76.142 521.222,76.142 	"/>
	<polygon clip-path="url(#SVGID_2_)" points="534.251,81.04 531.923,81.04 531.923,92.396 526.573,92.396 526.573,65.067 
		531.923,65.067 531.923,76.179 533.648,76.179 538.98,65.067 545.532,65.067 538.079,77.55 546.151,92.396 539.657,92.396 	"/>
	<polygon clip-path="url(#SVGID_2_)" points="600.258,88.136 610.242,88.136 610.242,92.396 594.908,92.396 594.908,65.068 
		600.258,65.068 	"/>
	<rect x="614.15" y="65.068" clip-path="url(#SVGID_2_)" width="5.313" height="27.328"/>
	<path clip-path="url(#SVGID_2_)" d="M624.854,92.396V65.068h8.053c2.814,0,5.014,0.625,6.598,1.877
		c1.582,1.252,2.373,3.115,2.373,5.593c0,1.301-0.287,2.455-0.863,3.463c-0.576,1.008-1.439,1.762-2.59,2.262
		c1.439,0.338,2.502,1.07,3.191,2.195c0.688,1.127,1.031,2.447,1.031,3.961c0,2.615-0.748,4.598-2.242,5.948
		c-1.496,1.353-3.639,2.028-6.43,2.028H624.854z M630.203,76.611h2.947c1.088-0.026,1.924-0.342,2.504-0.95
		c0.582-0.609,0.873-1.484,0.873-2.625c0-1.281-0.299-2.218-0.9-2.814c-0.6-0.596-1.508-0.895-2.721-0.895h-2.703V76.611z
		 M630.203,80.347v7.789h3.771c1.127,0,1.969-0.313,2.525-0.939c0.557-0.625,0.836-1.557,0.836-2.797
		c0-1.301-0.238-2.301-0.715-3.002c-0.475-0.701-1.238-1.051-2.289-1.051H630.203z"/>
	<path clip-path="url(#SVGID_2_)" d="M652.486,81.528v10.867h-5.332V65.086h8.916c2.691,0,4.803,0.709,6.336,2.129
		c1.531,1.42,2.299,3.395,2.299,5.922c0,1.428-0.318,2.656-0.957,3.69c-0.639,1.031-1.57,1.855-2.797,2.466
		c1.4,0.477,2.412,1.266,3.031,2.366c0.619,1.102,0.93,2.479,0.93,4.128v1.935c0,0.752,0.086,1.555,0.262,2.412
		s0.482,1.48,0.92,1.867v0.395h-5.518c-0.439-0.4-0.713-1.051-0.826-1.951s-0.17-1.82-0.17-2.76v-1.857
		c0-1.365-0.277-2.422-0.834-3.172c-0.557-0.752-1.355-1.127-2.395-1.127H652.486z M652.486,77.267h3.566
		c1.088,0,1.914-0.33,2.477-0.994c0.564-0.662,0.846-1.608,0.846-2.834c0-1.252-0.281-2.246-0.846-2.985
		c-0.563-0.738-1.383-1.107-2.459-1.107h-3.584V77.267z"/>
	<path clip-path="url(#SVGID_2_)" d="M682.201,86.56h-7.207l-1.463,5.836h-5.387l7.695-27.328h5.555l7.678,27.328h-5.387
		L682.201,86.56z M676.084,82.298h5.029l-2.459-9.666h-0.111L676.084,82.298z"/>
	<path clip-path="url(#SVGID_2_)" d="M697.504,81.528v10.867h-5.332V65.086h8.916c2.691,0,4.803,0.709,6.336,2.129
		c1.531,1.42,2.299,3.395,2.299,5.922c0,1.428-0.318,2.656-0.957,3.69c-0.639,1.031-1.57,1.855-2.797,2.466
		c1.4,0.477,2.412,1.266,3.031,2.366c0.619,1.102,0.93,2.479,0.93,4.128v1.935c0,0.752,0.086,1.555,0.262,2.412
		s0.482,1.48,0.92,1.867v0.395h-5.518c-0.439-0.4-0.713-1.051-0.826-1.951s-0.17-1.82-0.17-2.76v-1.857
		c0-1.365-0.277-2.422-0.834-3.172c-0.557-0.752-1.355-1.127-2.395-1.127H697.504z M697.504,77.267h3.566
		c1.088,0,1.914-0.33,2.477-0.994c0.564-0.662,0.846-1.608,0.846-2.834c0-1.252-0.281-2.246-0.846-2.985
		c-0.563-0.738-1.383-1.107-2.459-1.107h-3.584V77.267z"/>
	<polygon clip-path="url(#SVGID_2_)" points="722.434,76.78 722.545,76.78 727.107,65.067 732.906,65.067 725.098,82.673 
		725.098,92.396 719.768,92.396 719.768,82.335 712.092,65.067 717.928,65.067 	"/>
	<path clip-path="url(#SVGID_2_)" d="M357.407,78.731c0,2.033-1.646,3.68-3.68,3.68c-2.033,0-3.679-1.646-3.679-3.68
		s1.646-3.68,3.679-3.68C355.761,75.051,357.407,76.698,357.407,78.731"/>
	<path clip-path="url(#SVGID_2_)" d="M573.076,78.731c0,2.033-1.646,3.68-3.68,3.68s-3.68-1.646-3.68-3.68s1.646-3.68,3.68-3.68
		S573.076,76.698,573.076,78.731"/>
</g>
<g>
	<defs>
		<rect id="SVGID_3_" width="761" height="155.339"/>
	</defs>
	<clipPath id="SVGID_4_">
		<use xlink:href="#SVGID_3_"  overflow="visible"/>
	</clipPath>
</g>
<g>
	<defs>
		<rect id="SVGID_5_" width="761" height="155.339"/>
	</defs>
	<clipPath id="SVGID_6_">
		<use xlink:href="#SVGID_5_"  overflow="visible"/>
	</clipPath>
</g>
<g>
	<defs>
		<rect id="SVGID_7_" width="761" height="155.339"/>
	</defs>
	<clipPath id="SVGID_8_">
		<use xlink:href="#SVGID_7_"  overflow="visible"/>
	</clipPath>
</g>
</svg>
